<?xml version="1.0" encoding="UTF-8" standalone="no"?>
<!DOCTYPE svg PUBLIC "-//W3C//DTD SVG 1.1//EN" "http://www.w3.org/Graphics/SVG/1.1/DTD/svg11.dtd">
<svg xmlns="http://www.w3.org/2000/svg" version="1.1" viewBox="0.00 0.00 512.00 512.00">
<path fill="#000000" d="
  M 512.00 254.09
  L 512.00 256.34
  Q 511.49 269.77 503.17 279.43
  Q 491.56 292.89 472.49 292.89
  Q 293.18 292.87 114.30 292.88
  Q 112.80 292.88 114.20 293.42
  Q 123.64 297.04 132.42 302.93
  C 136.99 306.00 141.45 310.20 145.34 314.10
  Q 195.07 363.97 243.68 412.81
  C 254.29 423.46 257.92 438.26 253.03 452.65
  Q 250.05 461.42 243.34 466.83
  Q 235.19 473.40 225.96 474.91
  Q 213.26 476.99 201.74 470.71
  Q 197.50 468.40 187.22 458.13
  Q 98.67 369.62 10.17 281.07
  Q 1.02 271.92 0.00 257.13
  L 0.00 254.42
  Q 1.03 239.58 10.81 229.80
  Q 101.67 138.92 192.53 48.03
  C 205.92 34.63 226.14 32.58 241.34 43.98
  Q 249.61 50.18 252.93 59.64
  C 258.09 74.35 254.28 89.27 243.17 100.38
  Q 193.04 150.55 142.85 200.69
  C 134.37 209.16 125.40 214.40 114.80 219.10
  Q 113.72 219.58 114.90 219.58
  Q 295.01 219.50 475.31 219.60
  Q 488.90 219.61 499.75 228.99
  Q 510.48 238.27 512.00 254.09
  Z"
/>
</svg>
