<?xml version="1.0" encoding="UTF-8" standalone="no"?>
<!DOCTYPE svg PUBLIC "-//W3C//DTD SVG 1.1//EN" "http://www.w3.org/Graphics/SVG/1.1/DTD/svg11.dtd">
<svg xmlns="http://www.w3.org/2000/svg" version="1.1" viewBox="0.00 0.00 512.00 512.00">
<path fill="#000000" d="
  M 190.91 142.85
  Q 187.14 150.76 186.30 153.75
  Q 184.44 160.35 182.66 163.90
  C 175.71 177.79 156.44 181.52 144.83 170.16
  Q 138.12 163.60 137.53 154.36
  Q 137.16 148.63 140.77 139.02
  Q 147.20 121.92 155.64 110.31
  C 176.13 82.14 206.78 68.40 241.13 66.01
  C 283.79 63.05 325.65 73.32 353.49 107.78
  C 368.46 126.29 375.50 148.16 374.40 172.48
  C 373.51 192.43 366.46 210.52 354.20 226.10
  C 340.57 243.42 324.10 258.16 307.75 272.71
  C 301.55 278.22 293.48 286.17 288.28 293.39
  C 279.35 305.79 276.19 320.84 275.49 336.20
  C 275.15 343.77 273.95 349.84 266.84 352.95
  Q 263.37 354.47 256.38 354.30
  Q 251.10 354.17 245.39 354.19
  Q 233.75 354.23 230.79 343.86
  Q 229.95 340.92 230.23 335.23
  C 230.93 320.84 232.63 308.31 237.27 295.34
  C 242.21 281.53 251.04 268.70 261.19 258.10
  C 274.23 244.46 288.66 232.41 301.83 219.92
  C 313.94 208.44 324.80 195.44 326.81 178.06
  C 329.36 156.09 320.77 136.73 304.60 122.04
  Q 285.18 104.39 258.46 103.48
  C 228.82 102.46 203.91 115.56 190.91 142.85
  Z"
/>
<circle fill="#000000" cx="253.85" cy="420.27" r="26.17"/>
</svg>
