<?xml version="1.0" encoding="UTF-8" standalone="no"?>
<!DOCTYPE svg PUBLIC "-//W3C//DTD SVG 1.1//EN" "http://www.w3.org/Graphics/SVG/1.1/DTD/svg11.dtd">
<svg xmlns="http://www.w3.org/2000/svg" version="1.1" viewBox="0.00 0.00 512.00 512.00">
<path fill="#000000" d="
  M 249.83 0.00
  L 262.31 0.00
  Q 330.83 2.06 389.16 37.35
  C 393.36 39.90 399.59 43.10 401.92 47.24
  C 408.41 58.75 395.22 71.59 384.16 64.39
  Q 314.36 18.90 232.51 26.85
  Q 186.11 31.36 143.74 54.75
  Q 137.16 58.38 130.87 62.63
  Q 126.94 65.27 123.37 65.74
  C 112.21 67.20 105.00 54.29 111.62 45.51
  Q 113.31 43.27 119.48 39.41
  Q 178.95 2.18 249.83 0.00
  Z"
/>
<path fill="#000000" d="
  M 76.85 255.98
  C 76.43 287.39 73.94 325.73 46.56 347.23
  C 43.70 349.48 40.56 351.67 36.82 351.90
  C 29.40 352.34 23.34 346.89 23.09 339.47
  C 22.92 334.24 25.68 330.62 29.79 327.68
  Q 39.88 320.46 44.92 305.89
  C 50.89 288.62 50.99 270.28 51.28 252.31
  C 52.63 170.51 103.02 97.77 178.13 66.64
  Q 212.34 52.47 251.83 51.19
  Q 257.30 51.01 260.37 52.05
  C 271.15 55.70 271.63 71.57 260.90 75.75
  Q 258.31 76.76 253.43 76.87
  Q 185.39 78.40 134.89 124.12
  C 103.10 152.89 83.24 192.53 77.87 235.98
  Q 77.02 242.84 76.85 255.98
  Z"
/>
<path fill="#000000" d="
  M 0.00 257.20
  L 0.00 247.97
  C 0.53 239.89 0.92 231.32 1.94 223.68
  Q 13.47 137.59 74.23 75.65
  Q 79.20 70.58 82.24 69.50
  C 89.43 66.93 97.23 71.03 98.99 78.55
  C 100.45 84.79 97.45 89.01 93.13 93.27
  C 52.12 133.61 28.87 187.53 25.92 244.60
  C 25.63 250.12 26.48 256.88 24.12 261.80
  C 21.02 268.25 13.05 270.52 6.71 267.19
  Q 1.26 264.34 0.00 257.20
  Z"
/>
<path fill="#000000" d="
  M 331.10 93.21
  C 326.34 90.97 323.42 86.66 323.41 81.47
  C 323.40 72.02 333.11 66.15 341.62 69.90
  Q 344.11 71.00 346.51 72.21
  Q 404.18 101.32 435.14 157.08
  Q 456.59 195.71 460.14 240.25
  C 461.37 255.67 460.78 271.81 459.99 287.18
  C 459.10 304.50 433.46 303.46 434.47 284.97
  C 434.99 275.40 435.24 265.79 435.20 256.22
  C 434.91 185.87 394.57 123.04 331.10 93.21
  Z"
/>
<path fill="#000000" d="
  M 512.00 250.11
  L 512.00 261.34
  Q 510.92 304.25 496.31 344.35
  Q 494.03 350.62 492.26 352.69
  C 485.11 361.01 471.10 356.24 470.08 345.42
  C 469.60 340.30 472.68 334.81 474.30 329.91
  Q 494.11 269.72 481.46 208.40
  Q 470.99 157.60 437.91 114.54
  C 429.40 103.46 442.55 88.58 454.54 95.77
  Q 456.91 97.20 460.62 102.16
  Q 509.51 167.54 512.00 250.11
  Z"
/>
<path fill="#000000" d="
  M 182.49 121.04
  C 257.67 80.86 349.09 107.91 390.40 181.82
  C 403.26 204.83 409.65 230.66 409.57 257.26
  Q 409.46 298.73 402.84 338.20
  C 392.96 397.08 371.19 453.55 330.68 495.85
  C 318.15 508.93 299.60 491.17 312.36 477.90
  C 342.52 446.54 361.76 404.48 371.95 361.60
  Q 384.73 307.85 383.84 251.83
  Q 383.53 232.29 376.32 212.52
  C 350.01 140.37 267.88 107.60 198.62 141.57
  Q 195.42 143.14 192.47 144.92
  C 187.53 147.92 181.76 148.19 177.13 144.64
  C 171.56 140.38 170.35 132.39 174.53 126.94
  Q 176.67 124.15 182.49 121.04
  Z"
/>
<path fill="#000000" d="
  M 172.57 329.36
  C 164.19 374.92 143.42 430.39 92.58 442.41
  Q 86.95 443.74 83.52 442.91
  C 70.43 439.73 70.87 421.02 84.05 418.02
  C 86.76 417.40 89.54 416.85 92.18 415.91
  C 126.41 403.61 140.58 360.30 146.80 327.74
  C 151.37 303.85 153.33 279.87 153.63 255.56
  C 154.00 226.06 165.87 199.66 187.70 179.79
  C 206.22 162.95 230.84 153.69 255.50 153.66
  C 293.68 153.62 327.56 174.08 346.26 207.55
  Q 349.32 213.02 349.66 216.57
  C 350.41 224.36 343.89 230.71 336.07 230.28
  C 330.93 229.99 327.12 226.77 324.93 222.19
  C 310.46 191.87 275.82 174.41 242.83 180.35
  C 211.08 186.06 186.35 210.47 180.47 242.17
  Q 179.18 249.14 179.10 260.09
  Q 178.84 295.28 172.57 329.36
  Z"
/>
<path fill="#000000" d="
  M 156.64 175.37
  C 138.45 197.62 128.38 225.74 128.05 254.41
  Q 128.00 258.62 126.71 261.45
  C 121.54 272.80 103.96 270.14 102.69 257.96
  Q 102.02 251.62 103.06 241.57
  Q 107.56 197.84 133.68 163.06
  C 135.91 160.09 138.59 156.38 141.90 154.88
  C 148.86 151.74 156.75 154.89 159.37 162.09
  C 161.11 166.87 159.80 171.51 156.64 175.37
  Z"
/>
<path fill="#000000" d="
  M 276.80 388.99
  C 271.03 395.55 261.27 394.99 256.44 387.79
  C 253.54 383.47 253.89 378.51 256.06 373.93
  Q 258.90 367.93 261.44 361.21
  C 274.25 327.32 281.04 292.20 281.59 256.58
  C 281.74 246.51 276.36 237.78 267.50 233.16
  C 250.77 224.42 230.53 237.11 230.42 255.67
  C 230.35 266.64 218.20 272.70 209.61 265.91
  C 205.61 262.75 204.50 258.24 204.86 253.33
  Q 206.33 233.50 219.72 219.99
  C 239.44 200.08 271.86 199.70 291.81 219.53
  Q 307.70 235.32 307.17 258.49
  Q 305.75 320.84 282.17 378.30
  Q 278.66 386.88 276.80 388.99
  Z"
/>
<path fill="#000000" d="
  M 356.75 299.72
  C 351.37 363.96 332.37 428.35 289.97 477.30
  Q 276.80 492.50 258.57 506.97
  Q 253.51 510.98 250.11 511.60
  C 239.24 513.59 231.25 502.11 236.77 492.47
  Q 238.03 490.27 242.00 487.26
  C 294.52 447.52 319.42 384.89 328.69 320.72
  Q 330.25 309.93 330.93 300.32
  Q 331.34 294.57 333.23 291.55
  C 340.48 279.93 357.89 286.13 356.75 299.72
  Z"
/>
<path fill="#000000" d="
  M 123.50 304.51
  C 116.48 342.63 100.37 389.29 60.32 403.26
  Q 55.40 404.98 51.74 404.23
  C 44.56 402.75 40.10 395.87 41.82 388.70
  C 43.06 383.56 46.77 380.53 51.66 379.06
  C 80.44 370.45 93.36 327.55 98.10 300.72
  Q 98.82 296.64 100.73 293.94
  C 105.54 287.15 115.71 286.90 120.94 293.33
  C 123.63 296.64 124.25 300.46 123.50 304.51
  Z"
/>
<path fill="#000000" d="
  M 218.19 360.49
  C 206.67 408.26 182.69 465.40 126.06 471.46
  Q 121.12 471.99 117.95 470.99
  C 110.61 468.68 107.16 460.61 110.29 453.54
  C 112.43 448.73 116.89 446.35 122.09 446.00
  C 154.78 443.77 173.50 413.92 183.96 385.51
  C 190.63 367.42 195.82 347.28 198.71 326.88
  Q 199.37 322.25 201.27 319.37
  C 208.66 308.17 226.10 314.93 224.42 328.01
  Q 222.58 342.25 218.19 360.49
  Z"
/>
<path fill="#000000" d="
  M 451.28 358.52
  C 443.81 395.14 431.71 429.38 409.48 459.04
  Q 405.39 464.50 401.93 465.96
  Q 396.36 468.32 391.06 465.66
  C 385.52 462.89 382.54 456.17 384.72 450.23
  Q 385.70 447.55 387.99 444.73
  C 408.99 418.83 419.86 384.89 426.35 352.25
  Q 427.33 347.33 429.07 345.03
  C 434.31 338.16 444.76 338.05 449.79 345.24
  C 452.75 349.48 452.35 353.29 451.28 358.52
  Z"
/>
<path fill="#000000" d="
  M 188.09 496.38
  C 185.09 497.77 181.89 499.38 178.53 499.34
  C 170.55 499.25 164.77 492.42 165.98 484.54
  C 166.88 478.66 170.73 476.02 176.06 473.64
  Q 213.07 457.10 233.88 421.40
  C 237.29 415.54 240.10 410.42 247.54 410.32
  C 257.01 410.19 263.58 420.41 259.08 428.82
  Q 234.53 474.76 188.09 496.38
  Z"
/>
</svg>
